<?xml version="1.0" encoding="utf-8"?>
<!-- Generator: Adobe Illustrator 27.3.1, SVG Export Plug-In . SVG Version: 6.00 Build 0)  -->
<svg version="1.1" id="Layer_1" xmlns="http://www.w3.org/2000/svg" xmlns:xlink="http://www.w3.org/1999/xlink" x="0px" y="0px"
	 viewBox="0 0 180 57.5" style="enable-background:new 0 0 180 57.5;" xml:space="preserve">
<style type="text/css">
	.st0{fill:#005289;}
	.st1{fill:#00A79F;}
</style>
<g>
	<path class="st0" d="M88,20.4c3.3,0,6-2.7,6-6.1c0-3.4-2.7-6.1-6-6.1c-3.4,0-6,2.7-6,6.1C81.9,17.7,84.6,20.4,88,20.4"/>
	<polygon class="st1" points="18.3,45 29,25.7 37.9,25.7 19.5,57.5 13.1,57.5 4.9,25.7 13.8,25.7 	"/>
	<path class="st1" d="M51.2,48h-16c-0.5,3.1,0.9,4.8,4,4.8c1.6,0,2.9-0.5,3.9-2h7.3c-2,5.1-7.2,7.4-12,7.4
		c-7.1,0-11.8-4.1-10.6-11.5c1.1-7.2,6.7-11.5,13.7-11.5c7.5,0,11,4.6,9.9,12L51.2,48z M44.8,43.6c0-2.1-1.7-3.4-3.7-3.4
		c-2.2,0-4.3,1.2-5.1,3.4H44.8z"/>
	<path class="st1" d="M60.8,39.4L60.8,39.4c2-2.7,4.7-3.8,7.6-3.8h1.5L68.7,43c-0.9-0.6-1.9-0.7-3.1-0.7c-4.2,0-5.7,2.8-6.3,6.5
		L58,57.5h-7.6l3.4-21.6h7.6L60.8,39.4z"/>
	<path class="st1" d="M91.3,57.5h-7.6l0.4-2.4H84c-1.7,2.1-4.5,3.1-7,3.1c-6.3,0-10-5.4-9-11.6c1-6.2,6.2-11.5,12.5-11.5
		c2.5,0,4.9,0.9,6.2,2.8l0.3-2.1h7.6L91.3,57.5z M75.9,46.7c-0.4,2.7,1,4.9,4.1,4.9c3.1,0,5.2-2.1,5.7-4.9c0.4-2.7-1-4.9-4.1-4.9
		C78.5,41.8,76.3,44.1,75.9,46.7"/>
	<polygon class="st1" points="101.9,57.5 94.3,57.5 96.7,42.2 94.2,42.2 95.2,35.9 97.7,35.9 98.7,29.4 106.3,29.4 105.3,35.9 
		109.6,35.9 108.6,42.2 104.3,42.2 	"/>
	<path class="st1" d="M133.2,46.8c-1.1,7.3-7.8,11.5-14.7,11.5c-6.9,0-12.3-4.1-11.1-11.5c1.2-7.4,7.8-11.5,14.7-11.5
		C129,35.3,134.4,39.4,133.2,46.8 M115.4,46.8c-0.4,2.7,1,4.9,4.1,4.9c3.1,0,5.2-2.1,5.6-4.9c0.4-2.7-1-4.9-4.1-4.9
		C117.9,41.9,115.8,44.1,115.4,46.8"/>
	<path class="st1" d="M143.1,36l-1.8,11.6c-0.4,2.7-0.1,4.7,3.1,4.7c3.1,0,4.1-1.9,4.5-4.7l1.8-11.6h7.6l-2.1,13
		c-1.1,7.1-6.4,9.3-12.9,9.3c-6.4,0-11.1-2.2-9.9-9.3l2-13H143.1z"/>
	<path class="st1" d="M166.1,39.5L166.1,39.5c2-2.7,4.7-3.8,7.6-3.8h1.4l-1.2,7.4c-0.9-0.6-1.9-0.7-3.1-0.7c-4.3,0-5.7,2.9-6.3,6.5
		l-1.4,8.7h-7.6L159,36h7.6L166.1,39.5z"/>
	<path class="st1" d="M78.8,18.6c0,0,4.9,12.3,15.7,8.6c0,0,3.4-0.6,9.2-6.2c0,0,4.4-4.1,8-2.9c0,0-6.3-3.8-14.6,1.1
		C97.1,19.3,88.1,26.2,78.8,18.6"/>
	<path class="st1" d="M97.9,9.8c0,0-4.9-12.3-15.7-8.6c0,0-3.4,0.6-9.2,6.2c0,0-4.4,4-8,2.9c0,0,6.4,3.8,14.6-1.1
		C79.6,9.1,88.6,2.2,97.9,9.8"/>
</g>
</svg>
